<svg width="28" height="26" viewBox="0 0 28 26" fill="none" xmlns="http://www.w3.org/2000/svg">
<mask id="mask0_1429_1010" style="mask-type:alpha" maskUnits="userSpaceOnUse" x="0" y="0" width="28" height="26">
<path d="M13.7322 1.52344C14.5245 1.52344 15.1689 2.13281 15.1689 2.88183C15.1689 3.63085 14.5245 4.24022 13.7322 4.24022C12.94 4.24022 12.2955 3.63085 12.2955 2.88183C12.2955 2.13281 12.94 1.52344 13.7322 1.52344ZM13.7322 3.47851C14.0802 3.47851 14.3633 3.21084 14.3633 2.88183C14.3633 2.55282 14.0802 2.28515 13.7322 2.28515C13.3843 2.28515 13.1012 2.55282 13.1012 2.88183C13.1012 3.21084 13.3843 3.47851 13.7322 3.47851Z" fill="black"/>
<path d="M2.90869 14.4406C3.11499 14.2875 3.38802 14.2386 3.63895 14.3098L7.25816 15.3364C7.5962 15.4323 7.82686 15.7209 7.83217 16.0545C7.83753 16.3881 7.61616 16.6832 7.28144 16.7887L6.03806 17.1805C7.03481 19.7549 9.41123 21.6493 12.2549 22.1412V10.334H11.2147C10.844 10.6587 10.3548 10.8418 9.84582 10.8418C8.73526 10.8418 7.83179 9.9876 7.83179 8.93755C7.83179 7.8875 8.73526 7.03326 9.84582 7.03326C10.3548 7.03326 10.844 7.21643 11.2147 7.54107H12.2549V5.40288C11.2395 4.87324 10.6312 3.85416 10.6875 2.74094C10.7623 1.26377 12.0453 0.0608708 13.6085 0.002371C14.4471 -0.0292148 15.2405 0.255667 15.8438 0.804001C16.4474 1.35259 16.7798 2.09054 16.7798 2.88191C16.7798 4.01895 16.0694 5.05255 14.9699 5.51521C14.7667 5.60063 14.5285 5.51425 14.438 5.32209C14.3476 5.12989 14.439 4.90477 14.6423 4.81926C15.4514 4.47882 15.9742 3.71833 15.9742 2.88191C15.9742 2.29971 15.7297 1.75681 15.2856 1.3532C14.8418 0.949895 14.2584 0.740321 13.6405 0.763528C12.4909 0.80654 11.5472 1.69115 11.4923 2.77735C11.4477 3.65922 11.9695 4.46074 12.8216 4.81936C12.9669 4.8805 13.0606 5.01685 13.0606 5.16731V7.92198C13.0606 8.13237 12.8803 8.30284 12.6579 8.30284H11.0466C10.9321 8.30284 10.8229 8.25673 10.7465 8.17604C10.5172 7.93386 10.189 7.79503 9.84593 7.79503C9.17961 7.79503 8.63752 8.30761 8.63752 8.9376C8.63752 9.56759 9.17961 10.0802 9.84593 10.0802C10.189 10.0802 10.5172 9.94134 10.7465 9.69916C10.8229 9.61847 10.932 9.57236 11.0466 9.57236H12.6579C12.8804 9.57236 13.0606 9.74284 13.0606 9.95322V22.5851C13.0606 22.6943 13.011 22.7983 12.9244 22.8707C12.8378 22.943 12.7224 22.9766 12.6078 22.963C9.12168 22.5502 6.19137 20.2306 5.14238 17.0537C5.07699 16.8557 5.1913 16.6445 5.39948 16.5789L7.02676 16.066L3.40728 15.0366C3.64925 19.4415 7.00584 23.1617 11.5699 24.0834C12.3831 24.2475 13.1243 24.5953 13.732 25.0954C14.3397 24.5953 15.0809 24.2476 15.8941 24.0834C20.4582 23.1617 23.8148 19.4415 24.0565 15.0394L20.4372 16.066L22.0645 16.5789C22.2727 16.6445 22.387 16.8556 22.3216 17.0537C21.2726 20.2306 18.3423 22.5502 14.8562 22.963C14.7416 22.9766 14.6262 22.9429 14.5396 22.8707C14.453 22.7983 14.4034 22.6943 14.4034 22.5851V9.95317C14.4034 9.74279 14.5837 9.57231 14.8061 9.57231H16.4174C16.5319 9.57231 16.6411 9.61842 16.7175 9.69911C16.9468 9.94129 17.275 10.0801 17.6181 10.0801C18.2844 10.0801 18.8265 9.56754 18.8265 8.93755C18.8265 8.30756 18.2844 7.79498 17.6181 7.79498C17.275 7.79498 16.9468 7.93381 16.7175 8.17599C16.6411 8.25668 16.532 8.30279 16.4174 8.30279H14.8061C14.5836 8.30279 14.4034 8.13232 14.4034 7.92193V6.69069C14.4034 6.48031 14.5837 6.30983 14.8061 6.30983C15.0286 6.30983 15.2089 6.48031 15.2089 6.69069V7.54107H16.2492C16.6198 7.21643 17.1091 7.03326 17.618 7.03326C18.7286 7.03326 19.6321 7.8875 19.6321 8.93755C19.6321 9.9876 18.7286 10.8418 17.618 10.8418C17.109 10.8418 16.6198 10.6587 16.2492 10.334H15.2089V22.1412C18.0526 21.6493 20.429 19.7549 21.4257 17.1805L20.1825 16.7887C19.8477 16.6832 19.6263 16.3881 19.6317 16.0545C19.637 15.7209 19.8676 15.4323 20.2057 15.3364L23.8248 14.3098C24.0759 14.2387 24.3489 14.2875 24.5552 14.4406C24.7603 14.5928 24.8747 14.8304 24.8612 15.076C24.6003 19.8244 20.9821 23.8347 16.0622 24.8283C15.2934 24.9835 14.6034 25.3338 14.0667 25.8413L14.0168 25.8885C13.9381 25.9628 13.835 26 13.7319 26C13.6289 26 13.5258 25.9628 13.4471 25.8885L13.3972 25.8413C12.8605 25.3338 12.1704 24.9835 11.4017 24.8283C6.48183 23.8347 2.86358 19.8244 2.60267 15.076C2.58916 14.8304 2.70357 14.5928 2.90869 14.4406Z" fill="black"/>
</mask>
<g mask="url(#mask0_1429_1010)">
<rect width="31.5326" height="31.1936" rx="15.5968" transform="matrix(-1 0 0 1 31.5332 -5.08643)" fill="white"/>
</g>
</svg>
