<svg width="133" height="64" viewBox="0 0 133 64" fill="none" xmlns="http://www.w3.org/2000/svg">
<g clip-path="url(#clip0_1429_1071)">
<path d="M26.2192 52.2066H14.7451V63.5428H26.2192V52.2066Z" stroke="black" stroke-width="1.19" stroke-linejoin="round"/>
<path d="M41.1647 52.2066H29.6907V63.5428H41.1647V52.2066Z" fill="black"/>
<path d="M41.1647 52.2066H29.6907V63.5428H41.1647V52.2066Z" stroke="black" stroke-width="1.19"/>
<path d="M38.2185 55.0894H32.6331V60.6262H38.2185V55.0894Z" fill="white"/>
<path d="M11.5765 52.3548H0.367188V63.3904H11.5765V52.3548Z" fill="white"/>
<path d="M8.77953 55.0894H3.19409V60.6262H8.77953V55.0894Z" fill="black"/>
<path d="M11.7302 52.2066H0.256104V63.5428H11.7302V52.2066Z" stroke="black" stroke-width="1.19" stroke-linejoin="round"/>
<path fill-rule="evenodd" clip-rule="evenodd" d="M14.634 27.9087V17.398L23.4648 1.49428L25.1729 5.23633L14.634 27.9087ZM10.7481 29.2167L13.3102 23.4555V29.2167H10.7481ZM6.40527 34.6436H18.5199V29.2167H14.792L25.5486 6.06178L30.4167 16.8731L27.5087 1.34612L22.7815 0V0.042331L22.6705 0.00423318L13.3102 16.7588V21.7369L9.98798 29.1829H6.40527V34.6436Z" fill="black"/>
<path fill-rule="evenodd" clip-rule="evenodd" d="M15.8767 34.6055H10.8976L6.06372 43.2833V45.4549H8.74541V43.2113H17.8025V45.4549H20.8216V43.4738L15.9535 34.6436L15.8767 34.6055Z" fill="black"/>
<path fill-rule="evenodd" clip-rule="evenodd" d="M30.4467 39.0925C31.1983 39.0544 35.3532 35.651 35.3532 31.5365C35.3532 27.4219 31.1598 24.0185 30.4467 24.0185H30.3698C29.6183 24.0185 25.4292 27.405 25.4292 31.5745C25.4292 35.651 29.4987 39.0205 30.3314 39.1306C29.6183 39.1306 29.1998 39.5793 28.7472 40.0661C27.8287 41.0265 27.3154 42.2986 27.3124 43.6219V44.0664L27.3892 43.9182C27.7425 43.4684 28.1965 43.1061 28.7152 42.86C29.234 42.6139 29.8034 42.4907 30.3784 42.5001H30.4168C30.9847 42.497 31.5457 42.6232 32.0566 42.8691C32.5675 43.1149 33.0145 43.4739 33.3632 43.9182L33.4358 44.0664V43.6431C33.4321 42.3211 32.9188 41.0506 32.0011 40.0915C31.8343 39.82 31.608 39.5891 31.3389 39.4162C31.0698 39.2432 30.7648 39.1326 30.4467 39.0925Z" fill="black"/>
<path fill-rule="evenodd" clip-rule="evenodd" d="M14.8945 57.8747L20.5013 52.3548L26.0697 57.8959L20.48 63.4285L14.8945 57.8747Z" fill="black"/>
<path fill-rule="evenodd" clip-rule="evenodd" d="M83.9437 63.7968V54.4841H80.677V52.5749H89.4352V54.4714H86.1813V63.7841L83.9437 63.7968ZM73.6183 54.4841V57.68H74.8353C75.4248 57.7144 76.016 57.6544 76.5861 57.5022C76.8704 57.3953 77.1138 57.2029 77.2822 56.9519C77.4521 56.6912 77.5398 56.3861 77.5341 56.0757C77.5477 55.7071 77.423 55.3466 77.184 55.064C76.9531 54.798 76.6361 54.6199 76.2872 54.5602C75.7576 54.4942 75.2237 54.4687 74.6902 54.4841H73.6183ZM71.3807 63.7968V52.5749H74.9592C75.8438 52.5375 76.73 52.5943 77.6024 52.7443C78.243 52.9185 78.8038 53.3056 79.191 53.8406C79.6406 54.4809 79.8656 55.2498 79.8315 56.0291C79.8505 56.6284 79.7245 57.2235 79.4643 57.7647C79.2454 58.2025 78.9249 58.5826 78.5291 58.8738C78.1839 59.1241 77.792 59.304 77.3761 59.4029C76.6127 59.5271 75.8393 59.5809 75.0659 59.5638H73.6183V63.7968H71.3807ZM61.2219 58.1795C61.2219 59.4495 61.5066 60.4132 62.0759 61.0707C62.3516 61.3792 62.6902 61.6262 63.0693 61.7954C63.4484 61.9645 63.8594 62.052 64.2751 62.052C64.6908 62.052 65.1018 61.9645 65.4809 61.7954C65.86 61.6262 66.1986 61.3792 66.4743 61.0707C67.0436 60.4188 67.3283 59.441 67.3283 58.1372C67.3283 56.8334 67.0436 55.8739 66.4743 55.2587C66.1906 54.9568 65.8472 54.7161 65.4655 54.5514C65.0839 54.3868 64.6721 54.3019 64.2559 54.3019C63.8397 54.3019 63.4279 54.3868 63.0463 54.5514C62.6646 54.7161 62.3212 54.9568 62.0375 55.2587C61.508 55.9191 61.2219 56.8842 61.2219 58.1795ZM58.9288 58.2557C58.8989 57.2696 59.0703 56.2876 59.4327 55.3688C59.6812 54.7999 60.0281 54.2785 60.4575 53.8279C60.861 53.3988 61.3475 53.0547 61.8881 52.8162C62.6445 52.5142 63.4557 52.3701 64.2708 52.3929C64.995 52.3612 65.7177 52.4821 66.3912 52.7477C67.0648 53.0133 67.6738 53.4176 68.1781 53.9338C69.1545 54.9638 69.6428 56.3932 69.6428 58.2219C69.6428 60.0506 69.1517 61.4644 68.1695 62.4634C67.113 63.4486 65.7171 63.9972 64.2666 63.9972C62.816 63.9972 61.4202 63.4486 60.3636 62.4634C59.4071 61.4503 58.9288 60.0477 58.9288 58.2557ZM48.3387 52.5749H57.1097V63.7968H54.8721V54.4841H50.572V63.7968H48.3387V52.5749ZM116.735 31.8328H117.764C117.741 32.4464 117.485 33.0287 117.046 33.4626C116.592 33.8455 116.016 34.0558 115.419 34.0558C114.823 34.0558 114.247 33.8455 113.792 33.4626C113.354 33.0281 113.097 32.4465 113.071 31.8328H114.104C114.116 32.1448 114.251 32.4398 114.48 32.654C114.759 32.8361 115.085 32.9331 115.419 32.9331C115.753 32.9331 116.08 32.8361 116.359 32.654C116.587 32.4354 116.721 32.1384 116.735 31.8244V31.8328ZM111.03 35.0754H113.109V42.5468L117.58 35.0754H119.801V46.2973H117.704V38.9359L113.233 46.2888H111.013L111.03 35.0754ZM106.448 35.0754H108.685V46.2973H106.448V35.0754ZM98.1977 44.3881H100.371C100.857 44.4049 101.344 44.3709 101.823 44.2866C102.11 44.21 102.366 44.0456 102.553 43.8167C102.792 43.5227 102.905 43.1473 102.866 42.7717C102.828 42.3962 102.642 42.0507 102.348 41.8102C102.002 41.5647 101.37 41.4419 100.461 41.4419H98.1977V44.3881ZM95.9643 35.0754H98.1977V39.5582H101.187C101.873 39.5424 102.557 39.6529 103.202 39.8841C103.785 40.1143 104.279 40.5201 104.616 41.044C104.995 41.6166 105.19 42.2896 105.175 42.9743C105.195 43.6739 104.99 44.3617 104.59 44.9384C104.276 45.4244 103.821 45.8039 103.283 46.0264C102.604 46.2362 101.893 46.3279 101.183 46.2973H95.9729L95.9643 35.0754ZM84.7679 46.2973V35.0669H87.0054V39.4862H91.3525V35.0669H93.5858V46.2888H91.3525V41.3827H87.0054V46.2888L84.7679 46.2973ZM75.9669 44.4008H78.1319C78.621 44.4171 79.1104 44.3831 79.5924 44.2993C79.8812 44.226 80.1386 44.0628 80.3268 43.8336C80.5387 43.5844 80.6498 43.2661 80.6386 42.9404C80.6549 42.7223 80.613 42.5038 80.517 42.3069C80.4211 42.1099 80.2745 41.9416 80.092 41.8187C79.5142 41.5388 78.8713 41.4175 78.2302 41.4673H75.9669V44.4008ZM73.7294 35.0881H81.9794V36.9845H75.9669V39.5878H78.9561C79.6509 39.566 80.3439 39.6692 81.0015 39.8926C81.5709 40.118 82.0558 40.5129 82.3893 41.0228C82.7765 41.5923 82.9763 42.2666 82.9616 42.9531C82.9815 43.6482 82.7781 44.3315 82.3808 44.9046C82.058 45.3916 81.5996 45.7753 81.0613 46.0094C80.383 46.2381 79.6677 46.34 78.9518 46.31H73.7208L73.7294 35.0881ZM69.1346 35.0881H71.3722V46.31H69.1346V35.0881ZM60.8846 44.4008H63.0453C63.5301 44.4177 64.0153 44.3836 64.4929 44.2993C64.7801 44.2227 65.0356 44.0583 65.2231 43.8294C65.462 43.5354 65.5745 43.16 65.5361 42.7844C65.4978 42.4089 65.3116 42.0634 65.0181 41.8229C64.6722 41.5774 64.0403 41.4546 63.135 41.4546H60.8675L60.8846 44.4008ZM58.6512 35.0881H60.8846V39.5709H63.8737C64.5615 39.5558 65.2461 39.6663 65.8935 39.8968C66.4741 40.1278 66.967 40.5334 67.3027 41.0567C67.6833 41.6288 67.8798 42.3019 67.8664 42.987C67.8737 43.6743 67.6664 44.3471 67.2728 44.9131C66.9564 45.3984 66.4995 45.7776 65.9618 46.001C65.2826 46.2108 64.5717 46.3025 63.8609 46.2719H58.6512V35.0881ZM50.5378 36.9845V40.1805H51.7548C52.3457 40.2143 52.9382 40.1543 53.5099 40.0027C53.8016 39.8868 54.0464 39.6784 54.206 39.41C54.3763 39.151 54.4641 38.8472 54.4579 38.538C54.4709 38.1683 54.3463 37.8066 54.1077 37.5221C53.8753 37.2587 53.5588 37.0824 53.211 37.0226C52.6814 36.9565 52.1475 36.931 51.6139 36.9464L50.5378 36.9845ZM48.3002 46.2973V35.0669H51.8787C52.7633 35.0299 53.6495 35.0866 54.5219 35.2362C55.1633 35.4089 55.7245 35.7963 56.1105 36.3326C56.5607 36.9725 56.7858 37.7416 56.751 38.5211C56.77 39.1204 56.644 39.7154 56.3838 40.2567C56.1635 40.6936 55.8433 41.0734 55.4486 41.3657C55.103 41.6153 54.7112 41.7951 54.2956 41.8949C53.5322 42.019 52.7589 42.0729 51.9854 42.0557H50.5378V46.2888L48.3002 46.2973ZM121.321 14.3205H122.354C122.33 14.9351 122.074 15.5184 121.637 15.9545C121.182 16.337 120.604 16.5469 120.008 16.5469C119.411 16.5469 118.834 16.337 118.379 15.9545C117.939 15.5196 117.683 14.9356 117.661 14.3205H118.695C118.705 14.6321 118.838 14.9271 119.066 15.1418C119.336 15.3451 119.672 15.4444 120.01 15.4212C120.346 15.4438 120.678 15.3445 120.945 15.1418C121.06 15.0349 121.151 14.9065 121.215 14.764C121.279 14.6215 121.313 14.4679 121.317 14.3121L121.321 14.3205ZM115.612 17.5589H117.704V25.0176L122.175 17.5462H124.391V28.7808H122.312V21.4279L117.832 28.7808H115.612V17.5589ZM105.423 23.1592C105.423 24.4348 105.708 25.3999 106.277 26.0547C106.547 26.3715 106.885 26.6245 107.266 26.7952C107.647 26.9658 108.062 27.0498 108.48 27.041C108.897 27.0517 109.31 26.9694 109.69 26.8001C110.07 26.6308 110.407 26.3789 110.675 26.0631C111.247 25.4112 111.529 24.4334 111.529 23.1296C111.529 21.8258 111.256 20.8818 110.697 20.2469C110.423 19.9341 110.081 19.6864 109.698 19.5223C109.314 19.3581 108.898 19.2817 108.48 19.2987C108.061 19.2841 107.643 19.3629 107.258 19.5292C106.873 19.6954 106.531 19.945 106.256 20.2596C105.7 20.8917 105.423 21.8583 105.423 23.1592ZM103.125 23.2354C103.098 22.2532 103.271 21.2757 103.634 20.3612C103.881 19.7918 104.228 19.2702 104.659 18.8203C105.062 18.396 105.547 18.0563 106.085 17.8213C106.842 17.5206 107.652 17.3766 108.468 17.398C109.192 17.3663 109.914 17.4872 110.588 17.7528C111.261 18.0184 111.87 18.4227 112.375 18.9388C113.365 19.9407 113.861 21.3559 113.861 23.1846C113.861 25.0133 113.375 26.4328 112.405 27.4431C111.905 27.9596 111.3 28.3643 110.63 28.6301C109.96 28.8958 109.24 29.0165 108.519 28.984C107.793 29.0186 107.068 28.8999 106.392 28.6357C105.717 28.3715 105.105 27.9679 104.599 27.4516C103.619 26.4356 103.128 25.0303 103.125 23.2354ZM94.2178 17.5589H96.4512V22.338C96.825 22.3408 97.1857 22.2015 97.4589 21.9486C97.7999 21.4 98.0737 20.8131 98.2745 20.2003C98.7314 18.9854 99.1969 18.2277 99.6623 17.9314C100.355 17.584 101.13 17.4303 101.904 17.4869H102.229V19.1801H101.913C101.569 19.1578 101.226 19.2158 100.909 19.3495C100.693 19.4744 100.516 19.656 100.397 19.8744C100.173 20.3455 99.9808 20.8305 99.8203 21.3263C99.7139 21.6652 99.5707 21.9916 99.3933 22.2999C99.1781 22.6148 98.8837 22.8687 98.5393 23.0365C99.033 23.1749 99.4658 23.4729 99.7691 23.8831C100.179 24.4625 100.534 25.0774 100.832 25.7202L102.331 28.7808H99.7093L98.3856 25.8896C98.3856 25.8472 98.3215 25.771 98.2574 25.6525C98.2318 25.6144 98.1422 25.4366 97.9842 25.1234C97.8161 24.7395 97.5804 24.3883 97.2881 24.0863C97.0335 23.9271 96.7342 23.853 96.4341 23.8746V28.7808H94.2178V17.5589ZM90.1142 24.6408L92.2706 25.3181C92.0384 26.3899 91.4578 27.3565 90.618 28.0696C89.7718 28.6912 88.7368 29.0078 87.6844 28.967C87.006 28.9865 86.3313 28.8599 85.7069 28.5961C85.0825 28.3323 84.5232 27.9375 84.0675 27.4389C83.1224 26.4229 82.6513 25.0303 82.6541 23.2608C82.6541 21.3954 83.1281 19.9435 84.0761 18.905C84.5482 18.3935 85.127 17.99 85.7722 17.7225C86.4174 17.455 87.1136 17.3298 87.8125 17.3557C88.8255 17.2833 89.8307 17.5764 90.6429 18.1808C91.4551 18.7852 92.0195 19.6603 92.2322 20.6448L90.0288 21.1781C89.9213 20.6404 89.6321 20.1551 89.2089 19.8024C88.782 19.4606 88.2457 19.2819 87.6972 19.2987C87.3188 19.2871 86.9427 19.3616 86.5978 19.5165C86.2528 19.6713 85.9482 19.9023 85.7073 20.1918C85.1949 20.7887 84.9387 21.7581 84.9387 23.0915C84.9387 24.5096 85.1906 25.5213 85.6945 26.1182C85.9273 26.4102 86.2258 26.6442 86.5662 26.8014C86.9065 26.9587 87.2792 27.035 87.6545 27.024C88.22 27.0349 88.7677 26.8287 89.1833 26.4483C89.6709 25.9542 89.993 25.323 90.1056 24.6408H90.1142ZM75.3777 19.4553V22.6513H76.5947C77.1855 22.6851 77.778 22.6251 78.3497 22.4735C78.6333 22.3652 78.8753 22.1712 79.0415 21.9189C79.2118 21.6599 79.2996 21.3561 79.2934 21.0469C79.3065 20.6771 79.1819 20.3155 78.9433 20.031C78.7109 19.7676 78.3943 19.5913 78.0465 19.5315C77.517 19.4654 76.983 19.4399 76.4495 19.4553H75.3777ZM73.1443 28.7681V17.5589H76.71C77.5944 17.5232 78.4803 17.5785 79.3532 17.7239C79.9934 17.9015 80.5535 18.2896 80.9417 18.8246C81.3908 19.4635 81.6158 20.2308 81.5823 21.0088C81.6033 21.6096 81.4773 22.2066 81.215 22.7486C80.9961 23.1864 80.6757 23.5665 80.2799 23.8577C79.9347 24.108 79.5428 24.2879 79.1269 24.3868C78.3635 24.511 77.5901 24.5649 76.8167 24.5477H75.3691V28.7808L73.1443 28.7681ZM62.9855 23.1592C62.9855 24.4348 63.2702 25.3999 63.8395 26.0547C64.1152 26.3631 64.4538 26.6101 64.8329 26.7793C65.212 26.9484 65.623 27.0359 66.0387 27.0359C66.4544 27.0359 66.8654 26.9484 67.2445 26.7793C67.6236 26.6101 67.9622 26.3631 68.2379 26.0547C68.8072 25.4028 69.0919 24.4249 69.0919 23.1211C69.0919 21.8173 68.8072 20.8564 68.2379 20.2384C67.9652 19.9252 67.6245 19.6773 67.2415 19.513C66.8584 19.3488 66.4429 19.2727 66.0259 19.2902C65.6062 19.2757 65.1886 19.3544 64.8036 19.5207C64.4187 19.687 64.0761 19.9365 63.8011 20.2511C63.2574 20.8889 62.9855 21.8583 62.9855 23.1592ZM60.6881 23.2354C60.6618 22.2537 60.8331 21.2765 61.192 20.3612C61.4411 19.7916 61.7894 19.27 62.2211 18.8203C62.6234 18.395 63.1086 18.0551 63.6474 17.8213C64.4038 17.5193 65.215 17.3752 66.0302 17.398C66.7543 17.3663 67.477 17.4872 68.1506 17.7528C68.8241 18.0184 69.4331 18.4227 69.9374 18.9388C70.9167 19.9661 71.4049 21.3954 71.4021 23.227C71.3992 25.0585 70.9139 26.478 69.946 27.4854C69.4468 28.0024 68.8417 28.4074 68.1714 28.6732C67.5011 28.9389 66.7812 29.0594 66.0601 29.0263C65.3344 29.0609 64.6096 28.9422 63.9338 28.678C63.2579 28.4138 62.6465 28.0102 62.14 27.4939C61.1721 26.4497 60.6881 25.0303 60.6881 23.2354ZM48.2746 28.7808V17.5589H51.6225L53.6039 25.2123L55.5596 17.5589H58.9117V28.7808H56.8449V19.9379L54.6671 28.7723H52.532L50.35 19.9379V28.7723L48.2746 28.7808ZM125.267 0.0423563H133V11.2727H130.762V1.95994H127.449V6.7391C127.471 7.69776 127.425 8.65677 127.312 9.60913C127.253 10.0967 127.019 10.5471 126.654 10.8791C126.181 11.2223 125.599 11.3846 125.015 11.3362C124.754 11.3362 124.284 11.3066 123.593 11.26V9.49907H124.092C124.418 9.53219 124.746 9.46571 125.032 9.30858C125.194 9.18159 125.275 8.86834 125.275 8.36883V6.44278L125.267 0.0423563ZM119.011 6.81529L117.473 2.66264L115.996 6.81529H119.011ZM123.093 11.2685H120.693L119.737 8.72865H115.308L114.39 11.2685H112.025L116.295 0.0465895H118.656L123.093 11.2685ZM102.015 11.2685V0.0423563H104.253V4.47016H108.6V0.0423563H110.833V11.2727H108.6V6.36658H104.253V11.2727L102.015 11.2685ZM90.9639 0.0423563H93.0435V7.52222L97.5144 0.0423563H99.735V11.2727H97.6553V3.91986L93.1844 11.2727H90.9639V0.0423563ZM78.0594 11.2727V0.0423563H81.4072L83.3843 7.69577L85.3401 0.0423563H88.6965V11.2727H86.6297V2.43828L84.4561 11.2727H82.321L80.1261 2.43828V11.2727H78.0594ZM70.2449 1.95994V5.15592H71.4576C72.0484 5.18978 72.6409 5.12976 73.2127 4.97813C73.4975 4.87011 73.741 4.67614 73.9087 4.4236C74.079 4.16457 74.1668 3.86073 74.1606 3.55158C74.1748 3.19173 74.056 2.83913 73.8264 2.56007C73.5967 2.281 73.2722 2.09468 72.9137 2.03614C72.3841 1.97023 71.8502 1.94475 71.3167 1.95994H70.2449ZM68.0073 11.2727V0.0423563H71.5857C72.4716 0.00681077 73.3588 0.0621346 74.2332 0.207446C74.8734 0.385022 75.4336 0.773142 75.8218 1.30805C76.272 1.948 76.4971 2.71711 76.4623 3.49655C76.4808 4.09579 76.3549 4.69075 76.0951 5.23212C75.8904 5.64093 75.5971 5.99981 75.2361 6.28303C74.875 6.56625 74.4553 6.76681 74.0069 6.87032C73.2435 6.9945 72.4702 7.04835 71.6967 7.03118H70.2491V11.2643L68.0073 11.2727ZM57.7246 11.2727V0.0423563H65.8978V1.94724H59.9579V4.44053H65.4793V6.33695H59.9579V9.37631H66.1113V11.2727H57.7246ZM50.7898 11.2727V1.95994H47.5188V0.0423563H56.277V1.94724H53.0231V11.26L50.7898 11.2727Z" fill="black"/>
</g>
<defs>
<clipPath id="clip0_1429_1071">
<rect width="133" height="64" fill="white"/>
</clipPath>
</defs>
</svg>
