<svg width="139" height="131" viewBox="0 0 139 131" fill="none" xmlns="http://www.w3.org/2000/svg">
<g clip-path="url(#clip0_3_360)">
<path d="M88.6561 121.36C79.6968 121.36 59.3555 120.826 51.2927 116.189L2.23405 87.9892C1.6944 87.6801 1.36365 87.1081 1.36365 86.487C1.36365 85.8659 1.6944 85.2969 2.23405 84.9849L11.8549 79.4558C12.6876 78.9762 13.7523 79.2622 14.234 80.0913C14.7156 80.9204 14.4284 81.9805 13.5957 82.4601L6.58605 86.487L53.0335 113.188C61.1775 117.868 84.8118 117.946 91.2441 117.876C91.305 113.61 90.7885 101.821 83.5381 97.655L48.8324 77.7052C47.9997 77.2256 47.7154 76.1654 48.1941 75.3364C48.6757 74.5073 49.7405 74.2242 50.5732 74.7008L85.2789 94.6507C96.0632 100.85 94.7169 118.954 94.656 119.719C94.5835 120.601 93.8553 121.288 92.9674 121.311C92.6918 121.323 91.0961 121.36 88.6561 121.36Z" fill="#33BAEC"/>
<path d="M66.3884 131C63.5915 131 60.5886 130.746 57.3943 130.148C52.5838 129.247 25.8422 113.318 10.3317 103.901C7.97292 102.468 6.17119 100.246 5.26308 97.6436C3.68475 93.1227 1.49134 87.1429 1.46813 87.0823C1.13738 86.1839 1.60449 85.1872 2.50681 84.8608C3.40912 84.5344 4.41008 84.9966 4.73794 85.895C4.76115 85.9556 6.96036 91.9614 8.55029 96.5083C9.19438 98.3543 10.471 99.9286 12.145 100.945C37.0472 116.06 55.0616 126.188 58.0412 126.745C79.2529 130.723 91.5546 118.498 91.6764 118.373C92.3495 117.689 93.452 117.677 94.1367 118.347C94.8244 119.018 94.836 120.115 94.1628 120.8C94.0236 120.942 90.658 124.327 84.4318 127.167C80.2452 129.073 74.1059 131 66.3884 131Z" fill="#33BAEC"/>
<path d="M24.4641 81.4779C24.1623 81.4779 23.8635 81.3999 23.5937 81.2468L11.852 74.4958C11.3123 74.1867 10.9816 73.6147 10.9816 72.9936C10.9816 72.3725 11.3123 71.8034 11.852 71.4914L37.0878 56.984C37.6274 56.6749 38.2889 56.6749 38.8286 56.984L50.5703 63.7351C51.1099 64.0442 51.4407 64.6162 51.4407 65.2372C51.4407 65.8583 51.1099 66.4274 50.5703 66.7394L25.3345 81.2468C25.0675 81.3999 24.7658 81.4779 24.4641 81.4779ZM16.204 72.9936L24.4641 77.7427L46.2183 65.2372L37.9582 60.4881L16.204 72.9936Z" fill="#33BAEC"/>
<path d="M24.467 100.475C23.8664 100.475 23.2803 100.163 22.9583 99.608C22.4766 98.7789 22.7639 97.7187 23.5966 97.2392L47.962 83.2315V65.2345C47.962 64.2783 48.7424 63.5012 49.7028 63.5012C50.6631 63.5012 51.4436 64.2783 51.4436 65.2345V84.231C51.4436 84.8492 51.1128 85.4212 50.5732 85.7332L25.3345 100.241C25.0617 100.399 24.7629 100.475 24.467 100.475Z" fill="#33BAEC"/>
<path d="M12.7224 93.7233C11.762 93.7233 10.9816 92.9463 10.9816 91.9901V72.9935C10.9816 72.0373 11.762 71.2603 12.7224 71.2603C13.6827 71.2603 14.4632 72.0373 14.4632 72.9935V91.9901C14.4632 92.9463 13.6827 93.7233 12.7224 93.7233Z" fill="#33BAEC"/>
<path d="M24.4641 100.475C23.5037 100.475 22.7233 99.6975 22.7233 98.7413V79.7447C22.7233 78.7886 23.5037 78.0115 24.4641 78.0115C25.4244 78.0115 26.2049 78.7886 26.2049 79.7447V98.7413C26.2049 99.6975 25.4273 100.475 24.4641 100.475Z" fill="#33BAEC"/>
<path d="M11.1701 66.9705C10.8742 66.9705 10.5754 66.8953 10.3026 66.7394L0.8704 61.3171C0.330752 61.008 0 60.4361 0 59.8179C0 59.1997 0.330752 58.6277 0.867499 58.3157L57.458 25.7073C58.2907 25.2277 59.3555 25.5108 59.8371 26.3399C60.3187 27.169 60.0344 28.2291 59.2017 28.7087L5.2195 59.815L12.0405 63.735C12.8732 64.2146 13.1575 65.2747 12.6788 66.1038C12.3568 66.6585 11.7707 66.9705 11.1701 66.9705Z" fill="#33BAEC"/>
<path d="M104.843 87.0042C104.541 87.0042 104.242 86.9262 103.972 86.7731L64.6998 64.1974L57.9803 68.0597C57.1476 68.5392 56.0828 68.2532 55.6012 67.4241C55.1196 66.5951 55.4068 65.5349 56.2395 65.0553L63.8294 60.6933C64.369 60.3842 65.0305 60.3842 65.5702 60.6933L104.843 83.269L133.778 66.6355L118.566 57.8912C117.733 57.4117 117.449 56.3515 117.928 55.5224C118.406 54.6933 119.474 54.4102 120.307 54.8869L138.13 65.1333C138.669 65.4424 139 66.0144 139 66.6355C139 67.2566 138.669 67.8257 138.13 68.1377L105.713 86.7731C105.443 86.9291 105.144 87.0042 104.843 87.0042Z" fill="#33BAEC"/>
<path d="M88.1281 30.6874C87.7422 30.6874 87.3534 30.5603 87.0314 30.3003L65.0973 12.5517C64.3516 11.9479 64.2385 10.856 64.8449 10.1136C65.4513 9.37114 66.548 9.25848 67.2936 9.86223L89.2277 27.6108C89.9733 28.2146 90.0865 29.3065 89.4801 30.049C89.1348 30.4678 88.6329 30.6874 88.1281 30.6874Z" fill="#33BAEC"/>
<path d="M66.1969 41.685C65.2365 41.685 64.4561 40.9079 64.4561 39.9517V11.2056C64.4561 10.6914 64.6853 10.2061 65.0798 9.87675C65.4744 9.54743 65.9967 9.40877 66.5044 9.50121L89.0013 13.5426C89.9472 13.713 90.5768 14.6143 90.4056 15.5561C90.2344 16.4978 89.3292 17.1247 88.3834 16.9542L67.9348 13.2826V39.9546C67.9377 40.9079 67.1572 41.685 66.1969 41.685Z" fill="#33BAEC"/>
<path d="M95.7788 41.6503C95.1783 41.6503 94.5922 41.3383 94.2702 40.7837C93.7885 39.9546 94.0758 38.8944 94.9084 38.4149L109.331 30.1241V13.5281L96.6492 20.8194C95.8166 21.2989 94.7518 21.0129 94.2702 20.1839C93.7885 19.3548 94.0758 18.2946 94.9084 17.8151L110.201 9.02455C110.741 8.71545 111.403 8.71545 111.942 9.02455C112.482 9.33365 112.813 9.90562 112.813 10.5267V31.1265C112.813 31.7447 112.482 32.3167 111.942 32.6287L96.6492 41.4192C96.3736 41.5752 96.0719 41.6503 95.7788 41.6503Z" fill="#33BAEC"/>
<path d="M111.069 61.684C110.109 61.684 109.328 60.9069 109.328 59.9507V31.1236C109.328 30.1675 110.109 29.3904 111.069 29.3904C112.029 29.3904 112.81 30.1675 112.81 31.1236V59.9507C112.81 60.9098 112.032 61.684 111.069 61.684Z" fill="#33BAEC"/>
<path d="M95.776 70.4774C94.8156 70.4774 94.0352 69.7003 94.0352 68.7442V39.9171C94.0352 38.9609 94.8156 38.1838 95.776 38.1838C96.7363 38.1838 97.5168 38.9609 97.5168 39.9171V68.7442C97.5168 69.7003 96.7363 70.4774 95.776 70.4774Z" fill="#33BAEC"/>
<path d="M111.069 12.26C110.773 12.26 110.474 12.1848 110.201 12.0289L94.9056 3.23543C94.0729 2.7559 93.7886 1.69572 94.2673 0.866642C94.746 0.0375644 95.8137 -0.245535 96.6464 0.231112L111.939 9.02164C112.772 9.50118 113.056 10.5614 112.578 11.3904C112.256 11.948 111.669 12.26 111.069 12.26Z" fill="#33BAEC"/>
<path d="M80.4831 12.26C79.8825 12.26 79.2964 11.948 78.9744 11.3934C78.4928 10.5643 78.78 9.50411 79.6127 9.02457L94.9056 0.234042C95.7383 -0.242606 96.8031 0.0404941 97.2847 0.869571C97.7663 1.69865 97.4791 2.75883 96.6464 3.23836L81.3535 12.026C81.0778 12.1849 80.779 12.26 80.4831 12.26Z" fill="#33BAEC"/>
<path d="M80.483 15.4029C79.5226 15.4029 78.7422 14.6258 78.7422 13.6697V10.5238C78.7422 9.56761 79.5226 8.79053 80.483 8.79053C81.4433 8.79053 82.2238 9.56761 82.2238 10.5238V13.6668C82.2238 14.6258 81.4433 15.4029 80.483 15.4029Z" fill="#33BAEC"/>
<path d="M95.773 21.0505C95.4771 21.0505 95.1783 20.9754 94.9055 20.8194L79.6126 12.026C78.7799 11.5464 78.4956 10.4862 78.9743 9.65717C79.4559 8.82809 80.5207 8.54499 81.3534 9.02164L96.6463 17.8122C97.479 18.2917 97.7633 19.3519 97.2846 20.181C96.9626 20.7385 96.3765 21.0505 95.773 21.0505Z" fill="#33BAEC"/>
<path d="M95.776 41.6503C94.8156 41.6503 94.0352 40.8733 94.0352 39.9171V19.3172C94.0352 18.3611 94.8156 17.584 95.776 17.584C96.7363 17.584 97.5168 18.3611 97.5168 19.3172V39.9171C97.5168 40.8733 96.7363 41.6503 95.776 41.6503Z" fill="#33BAEC"/>
<path d="M95.773 41.6504C95.4771 41.6504 95.1782 41.5753 94.9055 41.4193L79.6126 32.6287C79.0729 32.3196 78.7422 31.7477 78.7422 31.1266V22.7665C78.7422 21.8103 79.5226 21.0332 80.483 21.0332C81.4433 21.0332 82.2238 21.8103 82.2238 22.7665V30.1271L96.6463 38.4178C97.479 38.8974 97.7633 39.9576 97.2846 40.7866C96.9626 41.3413 96.3765 41.6504 95.773 41.6504Z" fill="#33BAEC"/>
<path d="M80.483 61.684C79.5226 61.684 78.7422 60.9069 78.7422 59.9507V31.1236C78.7422 30.1675 79.5226 29.3904 80.483 29.3904C81.4433 29.3904 82.2238 30.1675 82.2238 31.1236V59.9507C82.2238 60.9098 81.4433 61.684 80.483 61.684Z" fill="#33BAEC"/>
<path d="M66.2114 50.8135C62.724 50.8135 59.8865 47.9883 59.8865 44.516C59.8865 41.0437 62.724 38.2185 66.2114 38.2185C67.1717 38.2185 67.9522 38.9956 67.9522 39.9518C67.9522 40.908 67.1717 41.685 66.2114 41.685C64.6447 41.685 63.3681 42.9561 63.3681 44.516C63.3681 46.076 64.6447 47.347 66.2114 47.347C67.2152 47.347 68.1553 46.8097 68.6659 45.946C69.1533 45.1198 70.221 44.8453 71.0479 45.3278C71.8777 45.8131 72.1533 46.8733 71.6688 47.6994C70.5344 49.6205 68.4454 50.8135 66.2114 50.8135Z" fill="#33BAEC"/>
</g>
<defs>
<clipPath id="clip0_3_360">
<rect width="139" height="131" fill="white"/>
</clipPath>
</defs>
</svg>
