<svg width="30" height="30" viewBox="0 0 30 30" fill="none" xmlns="http://www.w3.org/2000/svg">
<path d="M15 0C6.729 0 0 6.72909 0 15.0001C0 23.2711 6.729 30 15 30C23.271 30 30 23.2711 30 15.0001C30 6.72909 23.271 0 15 0ZM15 27.2727C8.23273 27.2727 2.72727 21.7673 2.72727 15.0001C2.72727 8.23291 8.23273 2.72727 15 2.72727C21.7673 2.72727 27.2727 8.23291 27.2727 15.0001C27.2727 21.7673 21.7672 27.2727 15 27.2727Z" fill="white"/>
<path d="M14.9997 6.36353C13.9973 6.36353 13.1819 7.17953 13.1819 8.18253C13.1819 9.18462 13.9973 9.99989 14.9997 9.99989C16.0021 9.99989 16.8175 9.18462 16.8175 8.18253C16.8175 7.17953 16.0021 6.36353 14.9997 6.36353Z" fill="white"/>
<path d="M15.0001 12.7273C14.247 12.7273 13.6365 13.3378 13.6365 14.0909V22.2727C13.6365 23.0258 14.247 23.6364 15.0001 23.6364C15.7532 23.6364 16.3637 23.0258 16.3637 22.2727V14.0909C16.3637 13.3378 15.7532 12.7273 15.0001 12.7273Z" fill="white"/>
</svg>
