<svg width="31" height="31" viewBox="0 0 31 31" fill="none" xmlns="http://www.w3.org/2000/svg">
<g clip-path="url(#clip0_4_602)">
<path d="M30.6212 28.7956L21.8057 19.98C23.5133 17.8708 24.5414 15.1906 24.5414 12.2715C24.5414 5.50578 19.0364 0.000732422 12.2707 0.000732422C5.50499 0.000732422 0 5.50572 0 12.2714C0 19.0371 5.50505 24.5421 12.2707 24.5421C15.1899 24.5421 17.8701 23.514 19.9793 21.8064L28.7948 30.622C29.0467 30.8738 29.3774 31.0004 29.7081 31.0004C30.0388 31.0004 30.3694 30.8738 30.6213 30.622C31.1263 30.1169 31.1263 29.3006 30.6212 28.7956ZM12.2707 21.9588C6.92843 21.9588 2.58333 17.6137 2.58333 12.2714C2.58333 6.9291 6.92843 2.584 12.2707 2.584C17.613 2.584 21.9581 6.9291 21.9581 12.2714C21.9581 17.6137 17.613 21.9588 12.2707 21.9588Z" fill="white"/>
</g>
<defs>
<clipPath id="clip0_4_602">
<rect width="31" height="31" fill="white"/>
</clipPath>
</defs>
</svg>
