<svg width="40" height="38" viewBox="0 0 40 38" fill="none" xmlns="http://www.w3.org/2000/svg">
<mask id="mask0_1429_794" style="mask-type:alpha" maskUnits="userSpaceOnUse" x="0" y="0" width="40" height="37">
<path d="M19.5414 2.16821C20.6688 2.16821 21.5859 3.0354 21.5859 4.10131C21.5859 5.16722 20.6688 6.03441 19.5414 6.03441C18.414 6.03441 17.4969 5.16722 17.4969 4.10131C17.4969 3.0354 18.414 2.16821 19.5414 2.16821ZM19.5414 4.95043C20.0366 4.95043 20.4395 4.56952 20.4395 4.10131C20.4395 3.6331 20.0366 3.25219 19.5414 3.25219C19.0462 3.25219 18.6433 3.6331 18.6433 4.10131C18.6433 4.56952 19.0462 4.95043 19.5414 4.95043Z" fill="black"/>
<path d="M4.13918 20.5501C4.43276 20.3322 4.8213 20.2626 5.17839 20.364L10.3288 21.8249C10.8099 21.9613 11.1381 22.372 11.1457 22.8468C11.1533 23.3215 10.8383 23.7415 10.3619 23.8915L8.59251 24.4492C10.011 28.1128 13.3928 30.8086 17.4396 31.5087V14.7061H15.9592C15.4318 15.1681 14.7355 15.4288 14.0112 15.4288C12.4308 15.4288 11.1451 14.2131 11.1451 12.7188C11.1451 11.2245 12.4308 10.0089 14.0112 10.0089C14.7356 10.0089 15.4318 10.2695 15.9592 10.7315H17.4396V7.68872C15.9946 6.93499 15.1289 5.48477 15.2091 3.90057C15.3154 1.79845 17.1413 0.0866238 19.3659 0.00337412C20.5592 -0.0415749 21.6883 0.363834 22.5469 1.14415C23.4058 1.92484 23.8789 2.975 23.8789 4.10118C23.8789 5.71927 22.8678 7.19016 21.3031 7.84857C21.014 7.97012 20.6751 7.8472 20.5463 7.57375C20.4176 7.30022 20.5477 6.97987 20.837 6.85817C21.9884 6.37371 22.7324 5.29146 22.7324 4.10118C22.7324 3.27266 22.3844 2.50007 21.7525 1.9257C21.1209 1.35177 20.2907 1.05353 19.4114 1.08656C17.7754 1.14777 16.4325 2.40663 16.3543 3.95239C16.2909 5.20735 17.0334 6.34798 18.246 6.85832C18.4528 6.94533 18.5862 7.13936 18.5862 7.35348V11.2736C18.5862 11.573 18.3295 11.8156 18.013 11.8156H15.7201C15.5571 11.8156 15.4018 11.75 15.293 11.6351C14.9667 11.2905 14.4996 11.0929 14.0114 11.0929C13.0632 11.0929 12.2917 11.8224 12.2917 12.7189C12.2917 13.6154 13.0632 14.3449 14.0114 14.3449C14.4996 14.3449 14.9667 14.1473 15.293 13.8027C15.4018 13.6878 15.557 13.6222 15.7201 13.6222H18.013C18.3296 13.6222 18.5862 13.8648 18.5862 14.1642V32.1403C18.5862 32.2958 18.5156 32.4438 18.3923 32.5467C18.2691 32.6496 18.1049 32.6975 17.9418 32.6781C12.9807 32.0906 8.81067 28.7897 7.31788 24.2688C7.22483 23.9869 7.3875 23.6864 7.68375 23.593L9.9995 22.8631L4.8487 21.3982C5.19305 27.6667 9.96973 32.9608 16.4648 34.2725C17.622 34.5061 18.6768 35.001 19.5416 35.7127C20.4064 35.001 21.4612 34.5062 22.6184 34.2725C29.1134 32.9608 33.8902 27.6667 34.2341 21.4022L29.0837 22.8631L31.3993 23.593C31.6956 23.6864 31.8583 23.9869 31.7652 24.2688C30.2725 28.7898 26.1024 32.0906 21.1414 32.6781C20.9783 32.6974 20.8142 32.6495 20.6909 32.5467C20.5676 32.4438 20.497 32.2958 20.497 32.1403V14.1641C20.497 13.8647 20.7536 13.6221 21.0702 13.6221H23.3631C23.5261 13.6221 23.6814 13.6878 23.7902 13.8026C24.1164 14.1472 24.5835 14.3448 25.0718 14.3448C26.02 14.3448 26.7914 13.6153 26.7914 12.7188C26.7914 11.8223 26.02 11.0929 25.0718 11.0929C24.5835 11.0929 24.1164 11.2904 23.7902 11.6351C23.6814 11.7499 23.5262 11.8155 23.3631 11.8155H21.0702C20.7535 11.8155 20.497 11.5729 20.497 11.2735V9.52137C20.497 9.22197 20.7536 8.97938 21.0702 8.97938C21.3868 8.97938 21.6434 9.22197 21.6434 9.52137V10.7315H23.1237C23.6512 10.2695 24.3474 10.0089 25.0717 10.0089C26.6521 10.0089 27.9378 11.2245 27.9378 12.7188C27.9378 14.2131 26.6521 15.4288 25.0717 15.4288C24.3474 15.4288 23.6512 15.1681 23.1237 14.7061H21.6434V31.5087C25.6902 30.8086 29.072 28.1128 30.4904 24.4492L28.7211 23.8915C28.2447 23.7415 27.9296 23.3215 27.9373 22.8468C27.9448 22.3721 28.2731 21.9613 28.7541 21.8249L33.9045 20.364C34.2617 20.2628 34.6502 20.3323 34.9438 20.5501C35.2357 20.7667 35.3986 21.1048 35.3793 21.4543C35.008 28.2117 29.859 33.9186 22.8577 35.3326C21.7636 35.5535 20.7816 36.0519 20.0178 36.7741L19.9468 36.8413C19.8349 36.9471 19.6881 37 19.5415 37C19.3949 37 19.2481 36.9471 19.1362 36.8413L19.0652 36.7741C18.3014 36.0519 17.3193 35.5534 16.2253 35.3326C9.22402 33.9187 4.07498 28.2117 3.70369 21.4543C3.68445 21.1048 3.84727 20.7667 4.13918 20.5501Z" fill="black"/>
</mask>
<g mask="url(#mask0_1429_794)">
<rect width="44.8734" height="44.3909" rx="20" transform="matrix(-1 0 0 1 44.873 -7.23755)" fill="#33BAEC"/>
</g>
</svg>
