<svg width="210" height="217" viewBox="0 0 210 217" fill="none" xmlns="http://www.w3.org/2000/svg">
<g clip-path="url(#clip0_1429_1682)">
<path d="M4.18333 115.281H1.43433V53.0171H4.18333V115.281Z" fill="#33BAEC"/>
<path d="M0 115.281H2.749V120.953H0V115.281Z" fill="#33BAEC"/>
<path d="M0.597656 122.186L2.15144 119.843L6.33471 122.679L4.78092 125.022L0.597656 122.186Z" fill="#33BAEC"/>
<path d="M2.749 53.0171H0V45.9893H2.749V53.0171Z" fill="#33BAEC"/>
<path d="M3.466 48.455L2.03174 45.9891L61.1951 9.12378L62.6293 11.5897L3.466 48.455Z" fill="#33BAEC"/>
<path d="M146.414 137.721L144.98 135.255L204.143 98.3896L205.578 100.856L146.414 137.721Z" fill="#33BAEC"/>
<path d="M61.1953 13.0694L62.6296 10.6035L202.829 95.6774L201.395 98.1433L61.1953 13.0694Z" fill="#33BAEC"/>
<path d="M4.06372 48.3319L5.49798 45.866L147.131 132.666L145.697 135.132L4.06372 48.3319Z" fill="#33BAEC"/>
<path d="M200.677 96.9103V94.0745H206.175V96.9103H200.677Z" fill="#33BAEC"/>
<path d="M203.905 96.4171L205.817 94.4443L210 98.6364L208.088 100.609L203.905 96.4171Z" fill="#33BAEC"/>
<path d="M206.175 99.7461H208.924V103.938H206.175V99.7461Z" fill="#33BAEC"/>
<path d="M204.861 103.938H207.61V167.682H204.861V103.938Z" fill="#33BAEC"/>
<path d="M145.697 136.611H148.446V208.862H145.697V136.611Z" fill="#33BAEC"/>
<path d="M206.892 169.038L205.697 166.449L208.446 165.093L209.641 167.682L206.892 169.038Z" fill="#33BAEC"/>
<path d="M207.61 166.326H210.359V173.354H207.61V166.326Z" fill="#33BAEC"/>
<path d="M208.327 170.764L209.761 173.23L147.849 211.452L146.414 208.986L208.327 170.764Z" fill="#33BAEC"/>
<path d="M147.849 208.986L146.414 211.452L3.46606 123.542L4.90033 121.076L147.849 208.986Z" fill="#33BAEC"/>
<path d="M3.82471 115.898L4.54184 114.665L146.175 201.095L145.458 202.328L3.82471 115.898Z" fill="#33BAEC"/>
<path d="M3.82471 53.5103L4.54184 52.2773L146.175 138.707L145.458 139.94L3.82471 53.5103Z" fill="#33BAEC"/>
<path d="M6.93237 54.9897H8.36664V117.624H6.93237V54.9897Z" fill="#33BAEC"/>
<path d="M31.6733 70.2783H33.1076V132.296H31.6733V70.2783Z" fill="#33BAEC"/>
<path d="M19.2432 62.5107H20.6774V125.145H19.2432V62.5107Z" fill="#33BAEC"/>
<path d="M43.9841 77.676H45.4184V139.694H43.9841V77.676Z" fill="#33BAEC"/>
<path d="M56.4143 85.5671H57.8486V147.708H56.4143V85.5671Z" fill="#33BAEC"/>
<path d="M81.1553 100.116H82.5895V162.997H81.1553V100.116Z" fill="#33BAEC"/>
<path d="M68.7251 92.8416H70.1594V154.982H68.7251V92.8416Z" fill="#33BAEC"/>
<path d="M93.4661 108.253H94.9003V169.778H93.4661V108.253Z" fill="#33BAEC"/>
<path d="M105.896 115.281H107.331V177.545H105.896V115.281Z" fill="#33BAEC"/>
<path d="M130.637 130.94H132.072V192.341H130.637V130.94Z" fill="#33BAEC"/>
<path d="M170.438 120.953H171.872V189.012H170.438V120.953Z" fill="#33BAEC"/>
<path d="M160.876 125.268H162.311V194.56H160.876V125.268Z" fill="#33BAEC"/>
<path d="M175.936 118.117H177.371V185.19H175.936V118.117Z" fill="#33BAEC"/>
<path d="M181.434 114.665H182.869V181.614H181.434V114.665Z" fill="#33BAEC"/>
<path d="M191.115 108.253H192.55V175.08H191.115V108.253Z" fill="#33BAEC"/>
<path d="M118.207 122.802H119.641V185.313H118.207V122.802Z" fill="#33BAEC"/>
<path d="M148.805 203.807L148.088 202.574L205.817 165.709L206.534 166.942L148.805 203.807Z" fill="#33BAEC"/>
</g>
<defs>
<clipPath id="clip0_1429_1682">
<rect width="210" height="217" fill="white"/>
</clipPath>
</defs>
</svg>
