<svg width="35" height="32" viewBox="0 0 35 32" fill="none" xmlns="http://www.w3.org/2000/svg">
<g clip-path="url(#clip0_4_595)">
<path d="M17.7242 0.0460612C12.8843 0.0326442 8.93664 3.67801 8.92418 8.17216C8.91172 12.6663 12.8391 16.3335 17.679 16.3469C22.5188 16.3603 26.4665 12.715 26.479 8.22083C26.4914 3.72668 22.564 0.0594783 17.7242 0.0460612Z" fill="white"/>
<path d="M28.5849 21.7019C26.1882 19.4296 23.0059 18.173 19.6244 18.1636L15.7234 18.1528C12.3419 18.1434 9.15274 19.3824 6.7434 21.6414C4.34587 23.8894 3.02068 26.8618 3.01195 30.0113C3.01056 30.5114 3.4461 30.9181 3.98471 30.9196L31.2921 30.9953C31.8307 30.9968 32.2685 30.5925 32.2699 30.0924C32.2786 26.9429 30.97 23.9632 28.5849 21.7019Z" fill="white"/>
</g>
<defs>
<clipPath id="clip0_4_595">
<rect width="33.2892" height="30.9114" fill="white" transform="translate(1.07959) rotate(0.158835)"/>
</clipPath>
</defs>
</svg>
