<?xml version="1.0" encoding="utf-8"?><svg viewBox="0 0 139 181" xmlns="http://www.w3.org/2000/svg" xmlns:xlink="http://www.w3.org/1999/xlink"><style>:root>svg{display:none}:root>svg:target{display:block}</style><svg viewBox="0 0 139 131" id="Frame" xmlns="http://www.w3.org/2000/svg"><g clip-path="url(#aa)"><path d="M88.656 121.36c-8.96 0-29.3-.534-37.363-5.171l-49.059-28.2a1.732 1.732 0 010-3.004l9.62-5.53a1.746 1.746 0 012.38.636 1.73 1.73 0 01-.638 2.37l-7.01 4.026 46.447 26.701c8.145 4.68 31.779 4.758 38.211 4.688.061-4.266-.456-16.055-7.706-20.221l-34.706-19.95a1.733 1.733 0 01-.638-2.369 1.749 1.749 0 012.38-.635l34.705 19.95c10.784 6.199 9.438 24.303 9.377 25.068a1.738 1.738 0 01-1.689 1.592c-.275.012-1.87.049-4.31.049z"/><path d="M66.388 131c-2.797 0-5.8-.254-8.994-.852-4.81-.901-31.552-16.83-47.062-26.247a11.95 11.95 0 01-5.069-6.257 844.107 844.107 0 00-3.795-10.562 1.73 1.73 0 011.039-2.221 1.744 1.744 0 012.23 1.034c.024.06 2.223 6.066 3.813 10.613a8.466 8.466 0 003.595 4.437c24.902 15.115 42.917 25.243 45.896 25.8 21.212 3.978 33.514-8.247 33.635-8.372a1.744 1.744 0 012.46-.026c.688.671.7 1.768.027 2.453-.14.142-3.505 3.527-9.731 6.367C80.245 129.073 74.106 131 66.388 131zM24.464 81.478c-.302 0-.6-.078-.87-.231l-11.742-6.751a1.732 1.732 0 010-3.004l25.236-14.508a1.75 1.75 0 011.74 0l11.742 6.751a1.732 1.732 0 010 3.004L25.334 81.247a1.753 1.753 0 01-.87.23zm-8.26-8.484l8.26 4.749 21.754-12.506-8.26-4.749-21.754 12.506z"/><path d="M24.467 100.475c-.6 0-1.187-.312-1.509-.867a1.73 1.73 0 01.639-2.369l24.365-14.008V65.236c0-.957.78-1.734 1.74-1.734.961 0 1.742.777 1.742 1.733v18.997c0 .618-.331 1.19-.87 1.502l-25.24 14.508a1.726 1.726 0 01-.867.234zm-11.745-6.752c-.96 0-1.74-.777-1.74-1.733V72.994c0-.957.78-1.734 1.74-1.734s1.741.777 1.741 1.733V91.99c0 .956-.78 1.733-1.74 1.733z"/><path d="M24.464 100.475c-.96 0-1.74-.777-1.74-1.734V79.745c0-.956.78-1.734 1.74-1.734s1.74.778 1.74 1.734V98.74c0 .957-.777 1.734-1.74 1.734zM11.17 66.97c-.296 0-.595-.075-.867-.23L.87 61.316c-.54-.309-.87-.88-.87-1.5 0-.617.33-1.19.867-1.501l56.591-32.609a1.745 1.745 0 012.38.633 1.73 1.73 0 01-.636 2.369L5.219 59.815l6.821 3.92a1.733 1.733 0 01-.87 3.236zm93.673 20.034c-.302 0-.601-.078-.871-.23L64.7 64.196l-6.72 3.863a1.746 1.746 0 01-2.379-.636 1.73 1.73 0 01.639-2.369l7.59-4.362a1.75 1.75 0 011.74 0l39.273 22.576 28.935-16.634-15.212-8.744a1.732 1.732 0 01-.638-2.369 1.747 1.747 0 012.379-.635l17.823 10.246a1.73 1.73 0 010 3.005l-32.417 18.635c-.27.156-.569.231-.87.231zM88.128 30.687c-.386 0-.775-.127-1.097-.387L65.097 12.552a1.728 1.728 0 01-.252-2.438 1.746 1.746 0 012.449-.252l21.934 17.749c.745.604.859 1.695.252 2.438a1.751 1.751 0 01-1.352.638z"/><path d="M66.197 41.685c-.96 0-1.74-.777-1.74-1.733V11.206a1.739 1.739 0 012.048-1.704L89 13.541a1.734 1.734 0 011.405 2.014 1.74 1.74 0 01-2.023 1.398l-20.448-3.671v26.672a1.734 1.734 0 01-1.738 1.73zm29.582-.035c-.6 0-1.187-.312-1.509-.866a1.73 1.73 0 01.638-2.37l14.423-8.29V13.528L96.649 20.82a1.746 1.746 0 01-2.379-.635 1.73 1.73 0 01.638-2.369l15.293-8.79a1.75 1.75 0 011.741 0c.54.309.871.88.871 1.502v20.6c0 .618-.331 1.19-.871 1.502l-15.293 8.79a1.77 1.77 0 01-.87.231z"/><path d="M111.069 61.684c-.96 0-1.741-.777-1.741-1.733V31.124a1.74 1.74 0 011.741-1.734c.96 0 1.741.777 1.741 1.734V59.95c0 .959-.778 1.733-1.741 1.733zm-15.293 8.793c-.96 0-1.74-.777-1.74-1.733V39.917c0-.956.78-1.733 1.74-1.733s1.74.777 1.74 1.733v28.827c0 .956-.78 1.733-1.74 1.733zm15.293-58.217c-.296 0-.595-.075-.868-.231L94.906 3.235a1.733 1.733 0 01-.639-2.368 1.748 1.748 0 012.38-.636l15.292 8.79a1.733 1.733 0 01-.87 3.239z"/><path d="M80.483 12.26c-.6 0-1.187-.312-1.509-.867a1.73 1.73 0 01.639-2.368L94.906.234a1.748 1.748 0 012.379.636 1.73 1.73 0 01-.639 2.368l-15.293 8.788a1.736 1.736 0 01-.87.234z"/><path d="M80.483 15.403c-.96 0-1.74-.777-1.74-1.733v-3.146c0-.956.78-1.733 1.74-1.733s1.74.777 1.74 1.733v3.143a1.74 1.74 0 01-1.74 1.736z"/><path d="M95.773 21.05c-.296 0-.595-.075-.867-.23l-15.293-8.794a1.733 1.733 0 01-.639-2.369 1.748 1.748 0 012.38-.635l15.292 8.79a1.734 1.734 0 01-.873 3.239z"/><path d="M95.776 41.65c-.96 0-1.74-.777-1.74-1.733v-20.6c0-.956.78-1.733 1.74-1.733s1.74.777 1.74 1.733v20.6c0 .956-.78 1.733-1.74 1.733z"/><path d="M95.773 41.65c-.296 0-.595-.075-.867-.23l-15.293-8.791c-.54-.31-.87-.881-.87-1.502v-8.36c0-.957.78-1.734 1.74-1.734s1.74.777 1.74 1.733v7.361l14.423 8.29c.833.48 1.117 1.54.639 2.37a1.743 1.743 0 01-1.512.863z"/><path d="M80.483 61.684c-.96 0-1.74-.777-1.74-1.733V31.124c0-.956.78-1.734 1.74-1.734s1.74.777 1.74 1.734V59.95c0 .959-.78 1.733-1.74 1.733zM66.211 50.813c-3.487 0-6.325-2.825-6.325-6.297 0-3.472 2.838-6.297 6.325-6.297.96 0 1.741.777 1.741 1.733 0 .956-.78 1.733-1.74 1.733a2.842 2.842 0 00-2.844 2.831 2.842 2.842 0 002.843 2.831 2.863 2.863 0 002.455-1.401 1.747 1.747 0 012.382-.618 1.73 1.73 0 01.62 2.371 6.36 6.36 0 01-5.457 3.114z"/></g><defs><clipPath id="aa"><path d="M0 0h139v131H0z"/></clipPath></defs></svg><svg viewBox="0 0 30 30" id="i" xmlns="http://www.w3.org/2000/svg"><path d="M15 0C6.729 0 0 6.73 0 15c0 8.271 6.729 15 15 15s15-6.729 15-15c0-8.27-6.729-15-15-15zm0 27.273C8.233 27.273 2.727 21.767 2.727 15 2.727 8.233 8.233 2.727 15 2.727c6.767 0 12.273 5.506 12.273 12.273 0 6.767-5.506 12.273-12.273 12.273z"/><path d="M15 6.364a1.82 1.82 0 00-1.818 1.819A1.82 1.82 0 0015 10a1.82 1.82 0 001.817-1.817A1.82 1.82 0 0015 6.363zm0 6.363c-.753 0-1.364.61-1.364 1.364v8.182a1.364 1.364 0 102.728 0V14.09c0-.753-.61-1.364-1.364-1.364z"/></svg><svg viewBox="0 0 131 181" id="logo_sfp" xmlns="http://www.w3.org/2000/svg"><path d="M79.099 129.174H51.72v26.565h27.379v-26.565z"/><path clip-rule="evenodd" d="M51.72 142.502l13.643-13.328 13.642 13.328-13.642 13.329-13.643-13.329z"/><path d="M79.374 128.815H51.352v27.284h28.022v-27.284zM115.598 129.174H88.219v26.565h27.379v-26.565z"/><path d="M115.873 128.815H87.851v27.284h28.022v-27.284z"/><path d="M108.686 135.75H95.044v13.328h13.642V135.75zm-65.076-6.576H16.233v26.565H43.61v-26.565z"/><path d="M36.786 135.75H23.143v13.328h13.643V135.75z"/><path d="M43.979 128.815H15.957v27.284h28.022v-27.284z"/><path fill-rule="evenodd" clip-rule="evenodd" d="M89.604 44.123c-.094 0-.187-.086-.187-.177L70.709 3.242v-.268c.093-.091.18-.091.274-.091l11.522 3.333c.094 0 .187.085.187.177l7.006 37.37v.091c.093.183 0 .269-.094.269zM71.538 3.51l17.51 38.364L82.412 6.66 71.539 3.51z"/><path fill-rule="evenodd" clip-rule="evenodd" d="M89.604 61.144c-.094 0-.094-.091-.094-.091v-16.93c0-.086.094-.086.094-.086.094 0 .094.086.094.086v16.93c0 .09-.094.09-.094.09zM30.978 86.539h29.588v-13.06h-9.12L77.714 17.74l11.89 26.023-7.099-37.37L70.983 3.15v.091l-.274-.091-22.863 40.344v-.268V55.47l-8.11 17.923h-8.758V86.54zm10.605-13.06l6.263-13.865V73.48h-6.263zm9.495-3.151V45.025L72.642 6.752l4.148 9.008-25.713 54.568z"/><path fill-rule="evenodd" clip-rule="evenodd" d="M54.115 86.447H41.951L30.15 107.338v5.223h6.543v-5.399H58.82v5.399h7.373v-4.772l-11.89-21.25-.187-.092zm35.583 10.805c1.84-.091 11.983-8.282 11.983-18.191 0-9.903-10.237-18.1-11.983-18.1h-.188c-1.84 0-12.07 8.197-12.07 18.191 0 9.818 9.95 17.924 11.977 18.192-1.747 0-2.764 1.079-3.868 2.249-1.291 1.353-3.506 4.235-3.506 8.556v1.079l.188-.36c1.104-1.621 3.867-3.419 7.28-3.419h.093c3.319 0 6.082 1.798 7.192 3.419l.181.36v-.988c0-4.32-2.214-7.203-3.5-8.556-1.016-1.347-2.214-2.34-3.78-2.432zm-72.45 72.151c.643.274 1.566.633 2.49.633 1.01 0 1.565-.451 1.565-1.084 0-.628-.462-.988-1.66-1.347-1.659-.543-2.763-1.445-2.763-2.883 0-1.621 1.379-2.974 3.774-2.974 1.11 0 1.94.274 2.583.451l-.462 1.804c-.368-.183-1.104-.451-2.12-.451-1.011 0-1.473.451-1.473.902 0 .628.555.896 1.847 1.347 1.746.634 2.576 1.53 2.576 2.882 0 1.622-1.291 2.974-4.055 2.974-1.104 0-2.214-.274-2.857-.633l.555-1.621zm13.824-1.798h-3.687v2.34h4.055v1.798h-6.357v-9.721h6.176v1.798h-3.874v1.981h3.687v1.804zm4.242 1.529l-.736 2.523H32.27l3.044-9.726h2.95l3.038 9.726h-2.395l-.736-2.523h-2.857zm2.582-1.621l-.648-2.072a11.981 11.981 0 01-.462-1.889c-.18.536-.274 1.347-.462 1.889l-.548 2.072h2.12zm7.742-5.582h6.082v1.798h-3.78v2.255h3.593v1.797H47.94v3.876h-2.302v-9.726zm10.043 0v9.726h-2.208v-9.726h2.208zm2.028 7.472c.648.274 1.572.633 2.488.633 1.017 0 1.572-.451 1.572-1.084 0-.628-.461-.988-1.659-1.347-1.66-.543-2.77-1.445-2.77-2.883 0-1.621 1.385-2.974 3.78-2.974 1.105 0 1.934.274 2.583.451l-.461 1.804c-.368-.183-1.104-.451-2.121-.451-1.01 0-1.473.451-1.473.902 0 .628.55.896 1.84 1.347 1.754.634 2.583 1.53 2.583 2.882 0 1.622-1.29 2.974-4.054 2.974-1.105 0-2.215-.274-2.858-.633l.55-1.621zm10.143-7.472v3.693h3.686v-3.693h2.209v9.726h-2.209v-4.052h-3.686v4.052h-2.215v-9.726h2.215zm11.334.177c.736-.086 1.66-.177 3.045-.177s2.395.268 3.038.811c.648.45 1.11 1.261 1.11 2.248 0 .994-.368 1.804-.923 2.341-.736.725-1.934.993-3.225.993h-.736v3.51H79.28v-9.726h-.094zm2.215 4.412c.18 0 .462.091.736.091 1.198 0 1.934-.627 1.934-1.621 0-.902-.643-1.438-1.747-1.438-.462 0-.742 0-.923.091v2.877zm15.483.183c0 3.151-1.934 5.131-4.885 5.131-2.95 0-4.697-2.157-4.697-4.948 0-2.883 1.934-5.138 4.885-5.138 3.038 0 4.697 2.255 4.697 4.955zm-7.186.183c0 1.889.923 3.236 2.395 3.236s2.395-1.439 2.395-3.328c0-1.712-.83-3.242-2.395-3.242-1.472 0-2.395 1.438-2.395 3.334zm8.664-4.778a26.701 26.701 0 012.951-.177c1.472 0 2.483.177 3.225.719.549.451.917 1.17.917 2.072 0 1.262-.917 2.072-1.747 2.432.736.268 1.104.902 1.292 1.798.274 1.084.642 2.346.829 2.705h-2.308c-.181-.274-.368-1.084-.736-2.254-.274-1.171-.736-1.53-1.566-1.53h-.648v3.784h-2.209v-9.549zm2.209 4.144h.923c1.104 0 1.753-.543 1.753-1.438 0-.902-.649-1.353-1.66-1.353-.555 0-.829 0-1.016.091v2.7zm8.483-2.432h-2.676v-1.798h7.654v1.798h-2.676v7.837h-2.208v-7.837h-.094z"/><path d="M17.934 124.512h1.192v-5.418h1.884v-.975h-4.94v.975h1.864v5.418zm15.546-3.784h-2.47v-1.652h2.613v-.957h-3.805v6.393h3.949v-.957H31.01v-1.883h2.47v-.944zm9.382 3.784h1.179v-2.626h.605c.68.018.98.28 1.173 1.115.174.798.343 1.322.436 1.511h1.223c-.125-.25-.3-.987-.511-1.785-.156-.616-.437-1.061-.911-1.232v-.03c.617-.207 1.191-.768 1.191-1.591 0-.554-.206-.999-.561-1.292-.45-.359-1.08-.512-2.021-.512-.686 0-1.348.055-1.803.141v6.301zm1.179-5.503c.119-.03.362-.055.742-.055.774 0 1.273.329 1.273 1.024 0 .634-.5 1.054-1.304 1.054h-.711v-2.023zm18.034 5.503h1.167l-.38-6.393h-1.554l-.904 2.56a31.76 31.76 0 00-.65 2.23h-.03a31.093 31.093 0 00-.6-2.218l-.854-2.572h-1.572l-.437 6.393h1.117l.144-2.572c.05-.871.087-1.889.118-2.724h.019c.174.799.405 1.67.661 2.487l.873 2.73h.911l.96-2.767c.294-.804.568-1.67.78-2.45h.025c-.006.866.044 1.859.081 2.688l.125 2.608zm10.418-6.393v6.393h1.198v-6.393h-1.198zm11.703 6.393v-2.285c0-1.055-.02-1.902-.07-2.724l.045-.013c.318.726.742 1.5 1.16 2.207l1.71 2.815h1.247v-6.393h-1.11v2.231c0 .975.018 1.798.105 2.651h-.018c-.3-.689-.686-1.432-1.117-2.139l-1.69-2.743H83.09v6.393h1.105zm16.886-1.81l.593 1.81h1.291l-2.127-6.393h-1.522l-2.096 6.393h1.229l.567-1.81h2.065zm-1.871-.884l.505-1.578c.106-.378.212-.823.312-1.194h.019c.093.371.199.81.33 1.194l.512 1.578h-1.678zm12.713 2.694h3.88v-.975h-2.689v-5.418h-1.191v6.393z"/><path fill-rule="evenodd" clip-rule="evenodd" d="M51.72 142.46l13.686-13.286 13.6 13.328-13.643 13.329L51.72 142.46z"/></svg><svg viewBox="0 0 31 31" id="loupe" xmlns="http://www.w3.org/2000/svg"><g clip-path="url(#da)"><path d="M30.621 28.796l-8.815-8.816a12.21 12.21 0 002.735-7.709c0-6.765-5.505-12.27-12.27-12.27C5.505 0 0 5.506 0 12.27c0 6.766 5.505 12.271 12.27 12.271 2.92 0 5.6-1.028 7.71-2.736l8.815 8.816a1.289 1.289 0 001.826 0 1.29 1.29 0 000-1.826zm-18.35-6.837c-5.343 0-9.688-4.345-9.688-9.688 0-5.342 4.345-9.687 9.688-9.687 5.342 0 9.687 4.345 9.687 9.687 0 5.343-4.345 9.688-9.687 9.688z"/></g><defs><clipPath id="da"><path d="M0 0h31v31H0z"/></clipPath></defs></svg><svg viewBox="0 0 49 49" id="rules" xmlns="http://www.w3.org/2000/svg"><path d="M26.345 29.293h-3.66L21.92 14.64h5.19l-.765 14.653zm-4.485 5.13c0-.84.225-1.475.675-1.905.45-.43 1.105-.645 1.965-.645.83 0 1.47.22 1.92.66.46.44.69 1.07.69 1.89 0 .79-.23 1.414-.69 1.874-.46.45-1.1.675-1.92.675-.84 0-1.49-.22-1.95-.66-.46-.45-.69-1.08-.69-1.89z"/><circle cx="24.5" cy="24.5" r="23"/></svg><svg viewBox="0 0 35 32" id="user" xmlns="http://www.w3.org/2000/svg"><g clip-path="url(#fa)"><path d="M17.724.046c-4.84-.013-8.787 3.632-8.8 8.126-.012 4.494 3.915 8.162 8.755 8.175 4.84.013 8.788-3.632 8.8-8.126.012-4.494-3.915-8.162-8.755-8.175zm10.861 21.656c-2.397-2.272-5.58-3.529-8.96-3.538l-3.902-.011c-3.381-.01-6.57 1.23-8.98 3.488-2.397 2.248-3.722 5.22-3.731 8.37-.001.5.434.907.973.909l27.307.075c.539.002.977-.402.978-.903.009-3.15-1.3-6.129-3.685-8.39z"/></g><defs><clipPath id="fa"><path transform="rotate(.159 .54 389.435)" d="M0 0h33.289v30.911H0z"/></clipPath></defs></svg></svg>